<?xml version="1.0" encoding="UTF-8" standalone="no"?>
<!-- Generator: Adobe Illustrator 27.4.1, SVG Export Plug-In . SVG Version: 6.00 Build 0)  -->

<svg
   version="1.1"
   id="LOGOS"
   x="0px"
   y="0px"
   viewBox="0 0 140 160"
   xml:space="preserve"
   sodipodi:docname="draft-stacked-full.svg"
   width="140"
   height="160"
   inkscape:version="1.2.2 (b0a8486, 2022-12-01)"
   xmlns:inkscape="http://www.inkscape.org/namespaces/inkscape"
   xmlns:sodipodi="http://sodipodi.sourceforge.net/DTD/sodipodi-0.dtd"
   xmlns="http://www.w3.org/2000/svg"
   xmlns:svg="http://www.w3.org/2000/svg"><defs
   id="defs318" /><sodipodi:namedview
   id="namedview316"
   pagecolor="#ffffff"
   bordercolor="#000000"
   borderopacity="0.25"
   inkscape:showpageshadow="2"
   inkscape:pageopacity="0.0"
   inkscape:pagecheckerboard="0"
   inkscape:deskcolor="#d1d1d1"
   showgrid="false"
   inkscape:zoom="2.024229"
   inkscape:cx="157.34386"
   inkscape:cy="144.99348"
   inkscape:window-width="1379"
   inkscape:window-height="845"
   inkscape:window-x="0"
   inkscape:window-y="25"
   inkscape:window-maximized="0"
   inkscape:current-layer="LOGOS" />
<style
   type="text/css"
   id="style243">
	.st0{fill:#FFFFFF;}
	.st1{fill:#C8102E;}
	.st2{fill:#1D428A;}
	.st3{fill:#EC0C21;}
</style>
<g
   id="g313"
   transform="matrix(0.24305556,0,0,0.24305556,-8.3254712,-6.0289481)">
	<g
   id="g277">
		<g
   id="g255">
			<path
   class="st0"
   d="M 109.7,349 M 172.5,76.2 H 77.8 C 54.7,76.2 35.9,95 35.9,118.1 v 320.7 c 0,23.1 18.8,41.9 41.9,41.9 h 94.7 c 23.1,0 42,-18.8 42,-41.9 V 118.1 C 214.4,95 195.6,76.2 172.5,76.2"
   id="path245" />
			<path
   class="st1"
   d="m 149,150.4 0.1,1.4 c 2.9,1.7 4.4,3.1 7.3,4.9 7.7,4.9 17.2,13.5 16,43.3 2.2,6.5 3.1,19.3 5.1,23.4 4,8 6.7,13.2 7.9,20.7 0,0 1.2,11.7 2.7,12.6 8,1.8 5.7,2.6 6.8,4 1.2,1.6 5.9,1.5 5.9,5.8 1.6,2.1 2.8,4.4 3.7,6.7 v -155 c 0,-17.7 -14.4,-32 -32,-32 h -30.6 c 4.9,1.7 7.7,3.8 9.3,7.1 4,0.3 8.7,9.2 1.3,22.3 3.2,2.2 0.7,5.4 -1.6,9.1 -0.7,1.2 -1.4,3.3 -3.6,3.2 -2.8,5.8 -6.1,11.5 -8.7,11.9 -0.8,0.9 -1.3,3.5 -0.2,4.6 3.8,1.6 8.4,3.9 10.6,6"
   id="path247" />
			<path
   class="st1"
   d="m 204.5,294.1 c -4.2,10.5 -14.5,18 -26.6,18 -15.8,0 -28.5,-12.8 -28.5,-28.5 0,-13.5 9.3,-24.7 21.8,-27.8 -3.3,-8.2 -10.2,-21.6 -12.3,-26 -2,-4.3 -6.7,-31.5 -7.7,-36.9 -0.2,-1.2 -12.3,7 -12.3,7.5 -0.7,0.7 -9.1,22.5 -9.4,23.7 -0.2,0.7 -0.2,3.7 -0.2,3.7 0,0 4.1,0.5 6.5,7.7 2.3,7.2 9.5,33.3 9.5,33.3 0,0 -1.9,2 -2,1.9 9,30.2 5.9,43.2 9.9,52 5.1,12.5 6.5,10.8 10.8,21.3 3.1,7.6 6.6,37.7 7.8,39 4.9,6.2 7.5,11 7.5,14.5 0,3.5 -4.1,13.8 -2.6,19.9 0.9,3.5 1.4,11.5 3,13 0,0 1.5,3 0.8,4.3 -0.2,0.5 -0.6,1.2 -0.5,1.7 2.7,9.5 11.3,25.6 -2.7,34.1 h 0.3 c 15.3,-2.4 26.9,-15.5 26.9,-31.6 z"
   id="path249" />
			<path
   class="st2"
   d="m 168.4,432.7 c -5.1,-4.6 -1.7,-6.5 -1.9,-8.3 -3.4,-14 -14.5,-22.5 -8.8,-27.1 -1.4,-4.6 -4.3,-10.4 -4.2,-10.4 -17.3,-10 -32.1,-26.1 -34.6,-28.5 -3,-3.3 -8.2,-6.6 -9.2,-9.3 -4.2,-3.8 -24.6,-32.8 -29.4,-43.5 L 72,304.4 C 68.2,289 55.6,276.1 55.3,260.6 c -0.1,-5.8 2.6,-18.4 3.7,-20.9 1,-2.5 5.8,-6.7 5.8,-6.7 v -4.1 c -18.1,0.5 -12.9,-1.3 -16,-8.4 -2.2,-4.9 -0.6,-5.9 0.2,-9.3 2.4,-10 10.5,-25.4 13.8,-32.3 1,-3.5 4.5,-12 4.5,-12 13.5,-27.5 18.5,-25.4 34.5,-27 l 0.8,-1.1 c 16.1,-0.7 13.4,-1.9 15.7,-17.4 -2.3,1 -3,-4.8 -3,-4.8 -1.3,-8.8 2.4,-7.1 4.2,-7.3 0.4,-14.5 1.9,-19 12.3,-23 h -54 c -17.7,0 -32,14.3 -32,32 V 439 c 0,17.7 14.3,32 32,32 h 94.7 c -10.8,-6 -4.4,-17.1 -4.1,-38.3 z"
   id="path251" />
			<path
   class="st0"
   d="M 95.7,450.7 V 392.6 H 107 c 6.5,0 10.5,3.5 10.5,11.6 v 8.6 c 0,5.3 -1.6,8 -3.9,9.3 2.3,1.5 3.9,4.1 3.9,8.5 v 8.5 c 0,8 -4.3,11.5 -10.5,11.5 H 95.7 Z m 7.7,-25.2 v 17.9 h 3 c 2.7,0 3.4,-1.4 3.4,-4.1 v -9.8 c 0,-2.8 -0.9,-3.9 -3.5,-3.9 h -2.9 z m 0,-25.5 v 19.2 h 2.9 c 2.7,0 3.5,-1 3.5,-4.1 V 404 c 0,-2.7 -0.8,-3.9 -3.4,-3.9 h -3 z m 32.3,38.9 h -7 l -1,11.8 h -7.8 l 7,-58.1 H 138 l 6.8,58.1 h -8.1 z m -3.5,-39.7 h -0.4 c -0.5,7 -1.4,19.3 -1.8,23.2 l -0.9,10 h 6 l -0.9,-10 c -0.2,-4 -1.3,-16.2 -2,-23.2 m -59.5,51.5 h -6.8 v -58.1 h 10.7 l 8.6,47.6 c -0.7,-11.4 -1.7,-25.1 -1.7,-36.8 v -10.7 h 6.8 v 58.1 h -9.8 l -8.6,-46.5 c 0.6,10.7 0.8,19.3 0.8,28.2 z"
   id="path253" />
		</g>
		<g
   id="g275">
			<path
   class="st2"
   d="M 251.9,271.5 V 86.3 h 26.2 c 25.7,0 37.9,14 37.9,41.8 v 100.4 c 0,30.1 -14.8,43.1 -37.9,43.1 h -26.2 z m 24.9,-161.8 v 138.5 h 4.4 c 8,0 9.9,-7.3 9.9,-19.2 V 128.4 c 0,-11.9 -1.8,-18.7 -9.9,-18.7 z"
   id="path257" />
			<path
   class="st2"
   d="m 357.7,208.8 h -4.4 v 62.8 H 328.4 V 86.3 h 30.9 c 21,0 33.2,11.7 33.2,37.3 v 47.7 c 0,18.9 -6.7,30.3 -18.9,35 6.5,2.3 9.3,9.1 11.9,21.3 1.8,7.3 8.3,43.8 8.3,43.8 h -25.9 z m -4.4,-99.1 v 77.6 h 4.2 c 8,0 10.1,-4.4 10.1,-13.2 V 123 c 0,-8.8 -2.1,-13.2 -10.1,-13.2 h -4.2 z"
   id="path259" />
			<path
   class="st2"
   d="m 441.5,235 h -15.3 l -2.1,36.6 H 399 L 416.9,86.4 h 35.5 L 470,271.6 h -26.2 z m -14,-23.1 h 12.7 l -1.8,-30.1 c -1,-14 -3.6,-59.1 -4.9,-81.4 -1.6,22.3 -3.4,68.2 -4.1,81.4 z"
   id="path261" />
			<path
   class="st2"
   d="m 501.4,187 v 84.6 H 476.5 V 86.3 h 48.2 v 23.3 h -23.3 v 57.1 h 20.2 V 187 Z"
   id="path263" />
			<path
   class="st2"
   d="m 530,86.3 h 63.5 v 23.3 H 574 V 271.4 H 549.1 V 109.7 H 530 Z"
   id="path265" />
			<path
   class="st1"
   d="M 315.7,471.3 H 252.2 V 463 c 0,-40.5 9.1,-51.4 23.1,-75.2 11.7,-19.5 15.8,-31.1 15.8,-53.9 v -14 c 0,-9.3 -2.3,-11.9 -7,-11.9 -4.9,0 -7.3,2.6 -7.3,11.9 v 31.6 h -24.9 v -29.3 c 0,-28.3 10.4,-37.6 32.2,-37.6 21.5,0 31.9,9.3 31.9,37.6 v 10.6 c 0,26.7 -8,42.5 -21,66.9 -9.6,18.4 -19.7,32.2 -19.5,47.5 h 40.2 z"
   id="path267" />
			<path
   class="st1"
   d="m 392.5,322.1 v 113.1 c 0,28.3 -10.1,37.6 -31.9,37.6 -21.8,0 -32.2,-9.3 -32.2,-37.6 V 322.1 c 0,-28.3 10.4,-37.6 32.2,-37.6 21.5,0 31.9,9.4 31.9,37.6 z m -24.9,-2.3 c 0,-9.3 -2.3,-11.9 -7,-11.9 -4.9,0 -7.3,2.6 -7.3,11.9 v 117.8 c 0,9.3 2.3,11.9 7.3,11.9 4.7,0 7,-2.6 7,-11.9 z"
   id="path269" />
			<path
   class="st1"
   d="M 468.8,471.3 H 405.3 V 463 c 0,-40.5 9.1,-51.4 23.1,-75.2 11.7,-19.5 15.8,-31.1 15.8,-53.9 v -14 c 0,-9.3 -2.3,-11.9 -7,-11.9 -4.9,0 -7.3,2.6 -7.3,11.9 v 31.6 H 405 v -29.3 c 0,-28.3 10.4,-37.6 32.2,-37.6 21.5,0 31.9,9.3 31.9,37.6 v 10.6 c 0,26.7 -8,42.5 -21,66.9 -9.6,18.4 -19.7,32.2 -19.5,47.5 h 40.2 z"
   id="path271" />
			<path
   class="st1"
   d="m 511,472.8 c -21.8,0 -32.2,-9.3 -32.2,-37.6 v -38.4 h 24.9 v 40.7 c 0,9.3 2.3,11.9 7.3,11.9 4.7,0 7,-2.6 7,-11.9 v -49.8 c 0,-8.8 -0.5,-16.6 -9.9,-16.6 -6,0 -10.6,4.1 -14,9.3 l -13.7,-10.6 36.3,-60.4 h -37.9 v -23.3 h 64.1 v 21.3 l -29,45.6 c 1.8,-0.3 3.4,-0.5 5.2,-0.5 19.5,0 23.9,15 23.9,34.5 v 48.2 c -0.1,28.3 -10.2,37.6 -32,37.6 z"
   id="path273" />
		</g>
	</g>
	<g
   id="g311">
		<g
   id="g285">
			<g
   id="g281">
				<path
   class="st3"
   d="m 297.3,561.1 c -4.6,0 -8.8,-1.2 -11.9,-3.5 -2.7,-1.9 -4.3,-4.5 -4.3,-7.1 0,-3.5 2.7,-5.9 4.3,-7 3.1,-2.2 7.4,-3.4 12,-3.4 4.6,0 8.9,1.2 12,3.4 1.6,1.1 4.3,3.5 4.3,7 -0.1,5.9 -7.6,10.6 -16.4,10.6 z m -19.2,-13.9 c -0.9,-2.5 -2.7,-4.7 -5.1,-6.5 1.6,0.3 3.3,0.5 5,0.5 1.8,0 3.5,-0.2 5.2,-0.5 -2.5,1.7 -4.3,4 -5.1,6.5 z m -19.5,13.9 c -4.6,0 -8.8,-1.2 -11.9,-3.5 -2.7,-1.9 -4.3,-4.5 -4.3,-7.1 0,-3.5 2.7,-5.9 4.3,-7 3.1,-2.2 7.4,-3.4 12,-3.4 4.6,0 8.9,1.2 12,3.4 1.6,1.1 4.3,3.5 4.3,7 0,5.9 -7.6,10.6 -16.4,10.6 z m 3.2,-34.1 c 0,-3.5 2.7,-5.9 4.3,-7 3.1,-2.2 7.4,-3.4 12,-3.4 4.6,0 8.9,1.2 12,3.4 1.6,1.1 4.3,3.5 4.3,7 -0.1,5.9 -7.6,10.6 -16.4,10.6 -4.6,0 -8.8,-1.2 -11.9,-3.5 -2.8,-2 -4.3,-4.5 -4.3,-7.1 z m 35.5,9.5 c -1.8,0 -3.5,0.2 -5.2,0.5 3.6,-2.6 5.8,-6.1 5.8,-10 0,-7.8 -8.9,-14.1 -19.9,-14.1 -11,0 -19.8,6.2 -19.8,14.1 0,3.9 2.2,7.4 5.7,10 -1.7,-0.3 -3.4,-0.5 -5.2,-0.5 -11,0 -19.8,6.2 -19.8,14.1 0,7.8 8.8,14.2 19.8,14.2 9.4,0 17.3,-4.6 19.4,-10.8 2.1,6.2 9.8,10.8 19.2,10.8 11,0 20,-6.4 20,-14.2 0,-7.9 -8.9,-14.1 -20,-14.1 z m 10.1,8.3 c -2.5,-1.5 -6.1,-2.5 -10,-2.5 -4,0 -7.5,1 -10,2.5 -2.5,1.5 -4,3.6 -4,5.8 0,2.2 1.5,4.3 4,5.8 2.5,1.5 6,2.5 10,2.5 4,0 7.5,-1 10.1,-2.5 2.5,-1.5 4.1,-3.6 4.1,-5.8 -0.1,-2.2 -1.6,-4.3 -4.2,-5.8 z m -38.7,0 c -2.5,-1.5 -6.1,-2.5 -10,-2.5 -4,0 -7.5,1 -10,2.5 -2.5,1.5 -4,3.6 -4,5.8 0,2.2 1.5,4.3 4,5.8 2.5,1.5 6,2.5 10,2.5 4,0 7.5,-1 10.1,-2.5 2.5,-1.5 4.1,-3.6 4.1,-5.8 -0.2,-2.2 -1.7,-4.3 -4.2,-5.8 z m -0.7,-12 c 2.5,1.5 6,2.5 10,2.5 4,0 7.5,-1 10.1,-2.5 2.6,-1.5 4.1,-3.6 4.1,-5.8 0,-2.2 -1.5,-4.3 -4,-5.8 -2.5,-1.5 -6.1,-2.5 -10,-2.5 -4,0 -7.5,1 -10,2.5 -2.5,1.5 -4,3.6 -4,5.8 -0.2,2.2 1.3,4.3 3.8,5.8 z m 89.5,-15.2 -1.7,8.6 -0.4,0.1 c -0.7,-0.9 -1.1,-1.3 -2,-2 -2.1,-1.6 -4.5,-2.5 -7,-2.5 -2,0 -3.6,0.6 -4.7,1.6 -1.1,1 -1.8,2.5 -1.8,4.1 0,3 2.1,4.5 5.8,6.7 l 1.4,0.8 c 3.1,2 7.9,5.2 7.9,12.2 0,8 -5.2,16.1 -17.5,16.1 -3,0 -6,-0.5 -8.9,-1.6 -1.9,-0.7 -2.9,-1.4 -4,-2.2 l -0.1,-0.6 1.6,-8.4 0.4,-0.1 c 0.7,1 1.7,1.7 3.1,2.7 3,2 5.8,2.2 7.1,2.2 4.4,0 7.8,-2.5 7.8,-6.4 0,-3.5 -2.7,-5.2 -5.6,-6.9 l -2,-1.2 c -3.1,-2 -7.4,-4.8 -7.4,-11.8 0,-2.7 0.8,-6.5 3.1,-9.6 3.1,-4.1 8,-5.6 13,-5.6 6.4,0 10,2.3 11.7,3.3 z m 20.7,16.4 -0.4,0.4 -5.5,-0.1 -2.6,12 c -0.4,1.5 -1.1,5.3 -1.1,6.5 0,1.1 0.4,1.9 1,2.4 0.6,0.5 1.3,0.6 2,0.6 1.5,0 2.1,-0.4 3.1,-0.8 l 0.2,0.2 -1.4,6.9 -0.5,0.5 c -1.9,0.4 -3.3,0.7 -5.3,0.7 -5.1,0 -8.8,-1.8 -8.8,-7.7 0,-2.8 1.1,-7.9 2,-11.7 l 2,-9.5 -4.3,0.1 -0.3,-0.4 1.3,-6.7 0.4,-0.2 h 4.4 l 1.8,-8.9 0.3,-0.4 c 4.4,-1.1 5.7,-1.7 9.7,-3 l 0.2,0.2 -1.3,5.7 -1.4,6.4 5.6,-0.2 0.2,0.3 z m 19.2,18.2 c 0,0 -1.9,3 -4.7,4.1 -2.8,1.1 -4.8,0.2 -5.5,-0.8 -0.6,-0.8 -1.9,-3.5 0.6,-6.4 2.5,-3 10.9,-3.2 10.9,-3.2 z m 8.3,-23.7 c -2,-1.4 -5.2,-2.2 -9.7,-2.2 -2.2,0 -4.4,0.2 -6.6,0.6 -2,0.4 -3.2,0.7 -4.3,1 l -0.3,0.3 -1.4,7.4 0.5,0.3 c 0.9,-0.4 2.3,-0.9 4.1,-1.6 1.8,-0.6 3.5,-1 5,-1 2.2,0 3.9,0.3 5.1,0.9 1.2,0.6 2,2 2,3.6 0,0.4 0,0.7 -0.1,1 -0.1,0.3 -0.1,0.5 -0.1,0.6 v 0.2 c 0,0 -0.7,0 -1.5,0.1 -0.5,0 -1.1,0.1 -1.9,0.2 -1.2,0.1 -2.6,0.3 -3.8,0.5 -2.9,0.5 -11.2,1.8 -13.6,7.3 -2.6,4.5 -2.1,10.5 0.4,13.4 0.9,1 2.3,2 4.1,2.4 v 0 c 0.1,0 0.4,0.1 0.4,0.1 7.1,1.1 12.2,-5.1 12.2,-5.1 l -0.8,3.8 0.3,0.3 8,-0.3 0.3,-0.3 4.7,-23.6 c 0.1,-0.5 0.2,-1.1 0.2,-1.8 0,-0.7 0.1,-1.2 0.1,-1.6 0.1,-2.9 -1.3,-5 -3.3,-6.5 z m 192,6.3 c 0,2.1 -0.5,4.4 -1,6.5 l -4.1,20.8 -0.3,0.3 -9.2,0.3 -0.2,-0.3 c 0,0 4.7,-23 4.7,-24.2 0,-1 -0.6,-3.8 -3.5,-3.8 -2.3,0 -4.7,2.3 -4.7,2.3 l -5,25.4 -0.3,0.3 -4,0.1 v 0 l -3.5,0.1 -1.8,0.1 -0.1,-0.1 -0.1,-0.2 c 0,0 0.7,-3.5 1.6,-7.8 v 0 c 1.4,-6.8 3.1,-15.6 3.1,-16.3 0,-1 -0.5,-3.8 -3.5,-3.8 -2.3,0 -4.7,2.3 -4.7,2.3 l -5,25.4 -0.3,0.3 -1.4,0.1 -7.8,0.3 -0.2,-0.3 6.9,-35.4 0.3,-0.3 9.2,-0.9 0.4,0.4 -1,5 c 0,0 4.4,-4.8 10.1,-5 5.3,-0.1 6.4,5 6.4,5 0,0 5.2,-5.1 10.8,-5 2.9,-0.2 8.1,1.1 8.2,8.4 z m -47.1,-8.9 -2,10.2 -0.4,0.4 c -0.6,-0.1 -1.3,-0.2 -2.1,-0.2 -2.6,0 -6.4,0.8 -9.3,4.7 v 0 l -4,21.1 -0.3,0.3 -8.8,0.3 -0.2,-0.2 6.9,-35.4 0.4,-0.4 8.7,-0.8 0.3,0.4 -1,5.1 0.4,-0.4 c 1.8,-1.6 3.4,-2.8 5.2,-3.8 1.8,-1 3.6,-1.5 5.4,-1.5 0.2,0 0.3,0 0.5,0 z m -38.8,26.3 c 0,0 -1.9,3 -4.7,4.1 -2.8,1.1 -4.8,0.2 -5.5,-0.8 -0.6,-0.8 -1.9,-3.5 0.5,-6.4 2.5,-3 10.9,-3.2 10.9,-3.2 z m 8.2,-23.7 c -2,-1.4 -5.3,-2.2 -9.7,-2.2 -2.2,0 -4.4,0.2 -6.6,0.6 -2,0.4 -3.2,0.7 -4.3,1 l -0.3,0.3 -1.4,7.4 0.5,0.3 c 0.9,-0.4 2.3,-0.9 4.1,-1.6 1.8,-0.6 3.5,-1 5,-1 2.2,0 3.9,0.3 5.1,0.9 1.2,0.6 2,2 2,3.6 0,0.4 0,0.7 -0.1,1 -0.1,0.3 -0.1,0.5 -0.1,0.6 v 0.2 c 0,0 -0.7,0 -1.5,0.1 -0.5,0 -1.1,0.1 -1.9,0.2 -1.2,0.1 -2.6,0.3 -3.8,0.5 -2.9,0.5 -11.2,1.8 -13.6,7.3 -2.6,4.5 -2.1,10.5 0.4,13.4 0.9,1 2.3,2 4.1,2.4 v 0 c 0.1,0 0.4,0.1 0.4,0.1 7.1,1.1 12.2,-5.1 12.2,-5.1 l -0.8,3.8 0.3,0.3 8,-0.3 0.3,-0.3 4.7,-23.6 c 0.1,-0.5 0.2,-1.1 0.2,-1.8 0.1,-0.7 0.1,-1.2 0.1,-1.6 0.1,-2.9 -1.2,-5 -3.3,-6.5 z m -20.5,-5.9 -0.3,0.3 h -14.6 l -2.4,12.1 12.7,-0.4 0.2,0.3 c -1,3.5 -1.3,4.5 -2,7.5 l -0.3,0.3 h -12.1 l -1.6,8.4 -2,10.9 -0.3,0.3 -10.4,0.3 -0.1,-0.3 1.8,-9.3 2.8,-13.2 c 2.1,-10.2 2.7,-13.5 4.7,-24.6 l 0.3,-0.3 h 15.2 l 9.7,-0.3 0.2,0.3 z m -68,11.4 -0.4,0.4 -5.5,-0.1 -2.6,12 c -0.4,1.5 -1.1,5.3 -1.1,6.5 0,1.1 0.4,1.9 1,2.4 0.6,0.5 1.3,0.6 2,0.6 1.5,0 2.1,-0.4 3.1,-0.8 l 0.2,0.2 -1.4,6.9 -0.5,0.5 c -1.9,0.4 -3.3,0.7 -5.3,0.7 -5.1,0 -8.8,-1.8 -8.9,-7.7 0,-2.8 1.1,-7.9 2,-11.7 l 2,-9.5 -4.3,0.1 -0.3,-0.4 1.3,-6.7 0.4,-0.2 h 4.4 l 1.8,-8.9 0.3,-0.4 c 4.4,-1.1 5.7,-1.7 9.7,-3 l 0.2,0.2 -1.3,5.7 -1.4,6.4 5.7,-0.2 0.1,0.3 z m 21.7,6.3 v 0.2 l -5.6,0.1 -5.5,0.1 0.1,-0.2 v -0.1 c 0.1,-0.4 0.2,-0.8 0.4,-1.3 0.4,-1.2 0.9,-2.5 1.9,-3.8 0.2,-0.2 0.3,-0.4 0.5,-0.6 1.7,-1.9 3.3,-2.2 4.4,-2.2 1.5,0 2.6,0.6 3.3,1.5 0.1,0.2 0.2,0.3 0.3,0.5 0.3,0.6 0.6,1.3 0.6,2 0,0.2 0.1,0.5 0.1,0.8 -0.1,0.9 -0.3,2 -0.5,3 z m 3.8,-12.2 0.1,-0.2 -0.1,0.2 c -1.9,-1.3 -4.7,-1.9 -7.5,-1.9 -6.2,0 -10.6,3.1 -13.5,7.4 -2.9,4.3 -4.3,9.9 -4.3,14.8 0,3.6 0.5,6.9 2.7,9.9 1.1,1.5 3.7,5 12.1,5 5.8,0 8.6,-1.5 10.1,-2.4 l 0.3,-0.3 c 0.3,-1.3 1.3,-7.1 1.7,-8.5 l -0.3,-0.2 c -3,2.3 -6.2,4 -9.8,4 -2.5,0 -4.3,-0.6 -5.6,-1.7 -1.3,-1.1 -1.9,-2.8 -1.9,-4.8 0,-0.8 0.1,-1.4 0.1,-2.2 V 547 h 0.2 c 5.7,-0.1 8.6,-0.2 13.4,-0.2 1.6,0 3.3,0 5.5,0 l 0.4,-0.3 c 0.5,-2.2 1,-4.8 1,-7.9 0,-2.7 -0.3,-7.7 -4.6,-10.5 z"
   id="path279" />
			</g>
			<path
   class="st3"
   d="m 606.4,531.4 c 0.8,0 1.1,0 1.3,-0.2 0.2,-0.2 0.4,-0.5 0.4,-0.8 0,-0.5 -0.2,-0.8 -0.6,-0.9 -0.2,-0.1 -0.6,-0.1 -1.2,-0.1 h -0.7 v 2.1 h 0.8 z m 0,-2.8 c 0.7,0 1,0 1.3,0.2 0.7,0.2 1.1,0.8 1.1,1.5 0,0.8 -0.5,1.3 -1.2,1.6 l 1.3,3 H 608 l -1.2,-2.8 h -0.1 -0.6 -0.6 -0.1 v 2.8 h -0.8 v -6.2 h 1.8 z m -4.2,3.1 c 0,2.7 2,4.8 4.5,4.8 2.5,0 4.5,-2.2 4.5,-4.9 0,-1.3 -0.5,-2.6 -1.3,-3.4 -0.8,-0.8 -2,-1.4 -3.2,-1.4 -2.6,0.1 -4.5,2.1 -4.5,4.9 z m 9.7,0 c 0,3.1 -2.3,5.5 -5.2,5.5 -3,0 -5.2,-2.4 -5.2,-5.5 0,-3.2 2.2,-5.5 5.2,-5.5 3,0 5.2,2.4 5.2,5.5 z"
   id="path283" />
		</g>
		<g
   id="g309">
			<path
   class="st2"
   d="m 49.6,515.4 v 26.8 h 2 c 2.6,0 4.1,-2.7 4.1,-10.5 v -4.6 c 0,-7.7 -0.9,-11.8 -4.1,-11.8 h -2 z m 0,30.5 v 16.8 H 46 v -51 h 4.4 c 6.4,0 9,2.3 9,15.4 v 5.2 c 0,11.3 -3.2,13.7 -7.9,13.6 z"
   id="path287" />
			<path
   class="st2"
   d="m 66.8,562.7 h -3.4 v -40 h 2.3 c 0.5,0.9 0.8,1.9 0.9,2.7 0.8,-2.1 3.1,-3.1 5.7,-3.1 h 0.1 v 3.5 h -0.3 c -2.8,0 -5.3,1.1 -5.3,3.2 z"
   id="path289" />
			<path
   class="st2"
   d="m 77.6,541.9 h 6 v -12.1 c 0,-2.9 -0.6,-4.5 -3,-4.5 -2.4,0 -3,1.6 -3,4.5 z m 3,21.2 c -3.9,0 -6.4,-1.8 -6.4,-8.4 v -23.9 c 0,-6.6 2.5,-8.6 6.4,-8.6 3.9,0 6.4,1.8 6.4,8.4 v 14.3 h -9.4 v 10.6 c 0,2.9 0.6,4.5 3,4.5 2.4,0 3,-1.6 3,-4.5 v -5.3 H 87 v 4.4 c 0,6.7 -2.5,8.5 -6.4,8.5"
   id="path291" />
			<path
   class="st2"
   d="m 95.8,543.4 c -2.9,-4.4 -5.3,-8.2 -5.3,-12.9 0,-5.4 1.9,-8.3 6.4,-8.3 4.8,0 6.4,2.9 6.4,8.9 v 3.5 H 100 v -4.2 c 0,-3.6 -0.7,-5.1 -3,-5.1 -2.2,0 -3,1.5 -3,4.8 0,3.4 2,7.3 4.6,11.1 3.4,4.9 4.8,9.6 4.8,13.9 0,4.9 -1.8,8 -6.4,8 -4.8,0 -6.4,-2.6 -6.4,-9.4 v -3.4 H 94 v 3.4 c 0,4.8 0.7,6.4 3.1,6.4 2.1,0 2.9,-1.9 2.9,-4.9 0,-2.8 -1.3,-7.4 -4.2,-11.8"
   id="path293" />
			<path
   class="st2"
   d="m 110.4,541.9 h 6 v -12.1 c 0,-2.9 -0.6,-4.5 -3,-4.5 -2.4,0 -3,1.6 -3,4.5 z m 3,21.2 c -3.9,0 -6.4,-1.8 -6.4,-8.4 v -23.9 c 0,-6.6 2.5,-8.6 6.4,-8.6 3.9,0 6.4,1.8 6.4,8.4 v 14.3 h -9.4 v 10.6 c 0,2.9 0.6,4.5 3,4.5 2.4,0 3,-1.6 3,-4.5 v -5.3 h 3.4 v 4.4 c 0,6.7 -2.5,8.5 -6.4,8.5"
   id="path295" />
			<path
   class="st2"
   d="m 127.6,562.7 h -3.4 v -40 h 2.6 c 0.2,0.6 0.4,1.1 0.4,1.6 1.1,-1.2 2.9,-2.1 4.9,-2.1 2.6,0 5,1.3 5,5.7 v 34.7 h -3.4 v -34.3 c 0,-1.9 -0.8,-3.1 -2.7,-3.1 -1.4,0 -2.4,0.6 -3.4,1.3 0.1,0.6 0.1,1.1 0.1,1.6 v 34.6 z"
   id="path297" />
			<path
   class="st2"
   d="m 147.1,562.8 c -3.6,0 -5.4,-1.3 -5.4,-5.7 v -31.3 h -2.2 v -3.1 h 2.2 v -7.4 l 3.4,-0.9 v 8.2 h 3.3 v 3.1 h -3.3 v 31.1 c 0,1.9 0.8,2.6 2.6,2.6 h 1 v 3.1 c -0.5,0.2 -1,0.3 -1.6,0.3"
   id="path299" />
			<path
   class="st2"
   d="m 154.1,541.9 h 6 v -12.1 c 0,-2.9 -0.6,-4.5 -3,-4.5 -2.4,0 -3,1.6 -3,4.5 z m 3,21.2 c -3.9,0 -6.4,-1.8 -6.4,-8.4 v -23.9 c 0,-6.6 2.5,-8.6 6.4,-8.6 3.9,0 6.4,1.8 6.4,8.4 v 14.3 h -9.4 v 10.6 c 0,2.9 0.6,4.5 3,4.5 2.4,0 3,-1.6 3,-4.5 v -5.3 h 3.4 v 4.4 c 0,6.7 -2.5,8.5 -6.4,8.5"
   id="path301" />
			<path
   class="st2"
   d="m 177.3,558.7 c -0.1,-0.6 -0.1,-1.1 -0.1,-1.6 v -30.6 c -0.9,-0.8 -1.9,-1.3 -3.3,-1.3 -1.9,0 -2.7,1.2 -2.7,3.1 v 28.6 c 0,1.9 0.8,3.1 2.7,3.1 1.5,0 2.5,-0.6 3.4,-1.3 m 0.4,2.3 c -1.1,1.2 -2.9,2.1 -4.9,2.1 -2.6,0 -5,-1.3 -5,-5.7 V 528 c 0,-4.4 2.4,-5.7 5,-5.7 1.7,0 3.3,0.6 4.4,1.6 v -12.2 h 3.4 v 51 H 178 c -0.1,-0.6 -0.2,-1.2 -0.3,-1.7"
   id="path303" />
			<path
   class="st2"
   d="m 200.5,556.9 v -28.6 c 0,-1.9 -0.8,-3.1 -2.7,-3.1 -1.4,0 -2.4,0.5 -3.3,1.3 v 30.6 c 0,0.5 0,1 -0.1,1.6 0.9,0.7 1.9,1.3 3.4,1.3 1.9,0 2.7,-1.2 2.7,-3.1 M 194,561 c -0.1,0.5 -0.2,1.1 -0.4,1.6 H 191 v -51 h 3.4 v 12.2 c 1.1,-1 2.7,-1.6 4.4,-1.6 2.6,0 5,1.3 5,5.7 v 29.4 c 0,4.4 -2.4,5.7 -5,5.7 -1.8,0.1 -3.6,-0.8 -4.8,-2"
   id="path305" />
			<path
   class="st2"
   d="m 210.6,562.7 -4.3,-40 h 3.7 l 3.1,35.5 3.4,-35.5 h 3.5 l -4.6,40 h 0.1 c -1,7.6 -3.6,9.6 -9,9.7 v -2.9 c 4.6,-0.2 5.6,-3.4 6,-6.8 z"
   id="path307" />
		</g>
	</g>
</g>
</svg>
